# xmcd
#
# Track frame offsets: 
#        150
#        16884
#        49808
#        78286
#
# Disc length: 1517 seconds
#
# Revision: 0
# Processed by: cddbd v1.5.2PL0 Copyright (c) Steve Scherf et al.
# Submitted via: ExactAudioCopy v0.95b4
#
DISCID=2305eb04
DTITLE=Grenada - Superstar
DYEAR=2002
DGENRE=
TTITLE0=radio mix
TTITLE1=club mix
TTITLE2=pulsedriver remix
TTITLE3=sm in motion remix
EXTD=
EXTT0=
EXTT1=
EXTT2=
EXTT3=
PLAYORDER=
